Patient4_TMGait_0pt6_01_right_11_EMG.mot
version=1
nRows=40
nColumns=33
inDegrees=no
endheader
time	1LAddLong	2LGlutMax	3LGlutMed	4LIliopsoas	5LSemiMemb	6LBicFemLong	7LRecFem	8LVastMed	9LVastLat	10LGasMed	11LTibAnt	12lTibPost	13LPeroneusLong	14LSol	15LExtDigLong	16LFlexDigLong	17RAddLong	18RGlutMax	19RGlutMed	20RIliopsoas	21RSemiMemb	22RBicFemLong	23RRecFem	24RVastMed	25RVastLat	26RGasMed	27RTibAnt	28RTibPost	29RPeroneusLong	30RSol	31RExtDigLong	32RFlexDigLong
14.018	0.020599	-0.031433	-0.11536	-0.005341	0.037079	0.095062	0.052643	0.006409	0.054016	-0.1207	-0.17639	0.00885	-0.38132	0.28931	0.23727	0.018005	0.033112	-0.019989	0.10407	0.017395	-0.28625	0.18127	-0.19455	-0.07431	0.002747	0.000916	0.75989	-0.002289	0.069733	-0.06546	-0.006409	0.003052
14.019	0.006409	-0.014648	-0.15717	0.007477	-0.032349	0.062408	0.063934	-0.008545	0.12375	-0.10315	-0.13473	0.008698	0.081635	0.080261	0.121	0.003967	-0.002899	-0.031586	0.12466	-0.10056	-0.24658	0.15915	-0.020752	-0.094147	-0.006866	0.004883	0.46753	-0.002899	0.36606	-0.009766	-0.006866	0.002441
14.02	0.007629	0.002899	-0.18997	-0.006866	0.024719	0.010986	0.10407	-0.010986	0.084229	-0.064545	0.14206	0.013885	-0.12985	0.15289	-0.27832	0.000305	-0.027771	-0.016174	0.11475	-0.049438	-0.18951	0.15106	0.086365	-0.089874	-0.010529	-0.001526	0.2478	-0.009613	0.20874	-0.009613	-0.003967	0.003815
14.021	0.000153	0.006409	-0.2385	0.002747	0.018768	0.00946	0.20767	-0.006714	0.005798	-0.072327	0.093384	0.010834	-1.1966	0.14358	-0.27954	-0.000305	-0.047302	-0.0177	0.10849	-0.046844	0.41077	0.09079	0.07431	0.00061	-0.006409	0.008545	-0.21088	-0.002899	0.23209	-0.15778	-0.002747	0.005341
14.022	-0.001984	0.014954	-0.19791	-0.016632	0.025635	-0.02655	0.23392	-0.007477	0.021973	-0.093994	0.10956	0.006866	-0.51605	0.086975	-0.29694	0.008698	-0.04715	-0.035706	0.11383	0.016479	0.39337	0.014038	0.082855	0.022278	0.004272	0.024414	-0.27878	-0.003204	0.20584	-0.25894	-0.007935	0.010071
14.023	0.005646	0.04715	-0.19104	-0.02533	0.027924	-0.007324	0.31082	0.001373	-0.02655	-0.086975	0.089264	0.001984	-0.28397	0.13336	0.028687	0.006409	-0.034485	-0.08255	0.11108	0.10315	0.15656	-0.013275	0.030518	0.025024	0.014038	0.007477	-0.63126	-0.008087	0.54352	-0.21561	-0.006256	0.004272
14.024	0.014038	0.019989	-0.081024	0.007019	0.04364	0.012207	0.35782	0.005188	-0.11169	0	0.037384	0.012665	0.085144	0.097351	-0.070953	-0.011444	-0.018921	-0.014801	0.072937	0.013275	0.06134	-0.16769	-0.047455	-0.012207	0.000916	0.006104	-0.58411	-0.00351	0.021667	-0.1326	-0.003052	0.00473
14.025	0.002899	0.050201	0.045166	0.002441	0.009613	0.039825	0.215	0.010834	-0.13702	0.112	-0.050812	0.003815	0.11276	-0.10742	-0.073242	-0.00061	-0.011902	-0.015106	0.071259	-0.076752	0.025482	-0.18616	-0.08255	-0.010681	0.000153	0.005646	-0.634	-0.002136	-0.52475	-0.08255	-0.003357	0.006256
14.026	0.013123	0.040894	0.070038	0.019379	-0.003204	0.003052	-0.010834	0.019226	-0.03418	0.12405	-0.068817	0.008545	-0.04715	-0.22827	0.077972	0.003052	0.008392	-0.092316	0.058899	-0.069733	-0.015411	-0.20248	-0.10162	-0.053406	-0.012665	0.013733	-0.63767	-0.007324	-0.35614	0.016785	-0.000305	0.005188
14.027	0.020294	0.043488	-0.011444	0.010223	0.022278	-0.036926	0.025635	0.016632	0.065765	0.14618	-0.065002	0.014496	-0.10864	-0.15305	0.3624	-0.002441	0.000153	-0.075378	0.019836	0.008392	-0.029602	-0.20401	-0.1384	-0.062561	-0.006866	0.008392	-0.40985	-0.00412	0.19943	0.15472	-0.005188	0.008545
14.028	0.029144	0.044708	-0.054169	0.010834	0.044556	-0.060577	0.11185	0.00473	0.094604	0.19394	-0.067444	0.005646	-0.112	-0.062103	0.070343	-0.002136	0.008392	-0.053711	-0.028381	0.037689	-0.065308	0.010681	-0.10056	-0.055389	0.007782	0.001831	-0.3212	-0.011444	0.33371	0.16007	-0.000153	0.007782
14.029	0.023193	0.036926	-0.015717	0.003357	0.040131	-0.040436	0.046082	0.007782	0.15701	0.14862	-0.015106	0.007629	-0.037079	0.016174	0.014496	-0.004272	0.000305	-0.040588	-0.13596	-0.001678	0.010529	0.19012	-0.10346	-0.050507	-0.040741	-0.000916	-0.27893	-0.008698	-0.26642	0.13763	-0.001068	0.006714
14.03	0.018616	0.026398	-0.078278	-0.027466	0.032196	-0.001984	0.030518	-0.00351	0.19226	0.038605	0.042572	0.006256	-0.048981	-0.079498	-0.10101	-0.001984	0.001221	-0.047607	-0.22644	0.00946	0.11261	0.033264	-0.063477	-0.028076	-0.009308	-0.018311	0.1387	-0.004883	-0.22812	0.18631	-0.001068	-0.002594
14.031	0.034027	0.008698	-0.063629	-0.051422	0.024567	0.018005	0.010529	-0.004578	0.1889	-0.084991	0.051422	0.007172	0.035706	-0.16327	-0.04364	-0.010071	0.003204	-0.031281	-0.32532	-0.007324	0.1442	-0.076294	-0.036011	-0.056305	-0.008545	-0.019531	0.37674	-0.003662	0.34042	0.15472	-0.000763	0.000458
14.032	0.021362	-0.001373	-0.053406	0.010986	0.034027	-0.002594	0.039673	-0.007935	-0.054321	-0.0383	0.024872	0.004883	0.013123	-0.18433	-0.010834	-0.005798	0.011902	-0.044861	-0.13473	-0.014343	0.045929	-0.099487	0.008545	-0.041809	-0.00061	-0.012665	0.17868	-0.002594	0.55115	0.072632	-0.002747	0.010376
14.033	0.011292	0.001984	-0.064697	0.048828	0.037231	-0.00061	0.13748	-0.003815	-0.019836	0.000153	0.045624	0.010376	-0.15579	-0.28305	0.076294	-0.001984	0.00412	-0.012054	-0.10376	0.06485	-0.027466	-0.050049	0.010223	-0.055847	0.016479	-0.000763	-0.1532	-0.001373	0.35446	0.019226	-0.007019	0.008392
14.034	0.015564	0.028839	-0.14038	0.056	0.024567	0.002747	0.18326	0.001984	0.032349	-0.041504	0.060425	0.01358	-0.37399	-0.43121	0.090332	0.014343	0.008545	0.027008	-0.42404	-0.041656	-0.13886	-0.033264	0.076752	-0.083313	0.00824	0.008545	-0.24597	-0.00351	-0.28183	-0.050354	-0.001221	0.010529
14.035	0.014343	0.018921	-0.058289	0.013275	0.030212	0.004578	0.1532	0.003815	0.033875	-0.052948	0.060577	0.005035	-0.11704	-0.39124	0.026093	0.02182	0.030975	0.001373	0.006256	-0.12558	-0.14633	-0.088806	0.11749	-0.09201	0.005188	0.014801	-0.33875	-0.005646	-0.44098	-0.043335	-0.003357	0.016479
14.036	0.007935	-0.014343	-0.099335	-0.001221	0.021515	0.002289	0.18066	0.00824	-0.009003	-0.066986	0.038452	0.022888	-0.03479	-0.2179	-0.041656	0.006409	0.015717	0.006866	0.28992	-0.12695	-0.16052	-0.050354	0.072632	-0.098724	0.036163	0.008545	-0.072479	-0.002594	-0.23804	-0.04837	-0.005646	0.003815
14.037	0.007782	-0.009155	-0.14999	0.015564	0.023041	0.018921	0.19531	0.007019	0.003815	-0.068054	0.024567	0.010529	-0.26093	-0.017548	0.026093	0.008087	0.005035	0.04425	0.38513	-0.074005	-0.098267	-0.049896	0.054626	-0.081329	0.028839	-0.002747	0.49225	-0.000916	0.121	-0.053558	-0.008545	0.010834
14.038	0.006866	-0.021362	-0.10971	0.013123	0.019684	0.016937	0.055389	0.001831	0.04776	-0.088806	0.033417	0.010223	0.13519	0.090942	0.16724	-0.027771	0.006714	-0.022888	0.60944	0.056	0.036774	-0.12207	-0.024719	-0.024872	0.020752	-0.007629	0.61966	-0.004425	0.21896	-0.072174	0.001221	0.00885
14.039	0.014801	-0.045166	-0.036316	0.026245	0.024414	-0.011597	-0.024109	-0.016785	-0.002747	-0.07309	-0.002289	0.011597	0.17242	0.16541	0.17929	-0.022125	0.002747	-0.13092	1.0489	0.17609	0.20554	-0.095825	-0.067139	0.006104	0.00061	-0.019226	0.45487	-0.010834	-0.2359	0.009308	-0.002899	0.009766
14.04	0.014954	-0.011749	-0.010681	0.028534	0.020752	-0.007782	0.039825	-0.008698	-0.023346	-0.054169	-0.041656	0.009918	0.22903	0.23438	0.094757	-0.001831	0.028229	-0.19516	0.74631	0.21622	0.10651	0.04364	0.03067	-0.031586	-0.010529	-0.009918	-0.043335	-0.002747	-0.86838	0.1207	-0.007019	0.001984
14.041	0.012817	0.059662	-0.15717	-0.006866	0.019836	-0.014038	0.076752	0.001831	-0.019836	-0.013275	0.02121	0.006256	0.18753	0.26901	0.033875	-0.001831	0.0177	-0.13245	0.5571	0.13245	0.10208	0.065002	0.063782	-0.05661	-0.009003	-0.00061	-0.40222	-0.003815	-0.40436	0.10117	-0.007477	0.006104
14.042	0.005798	0.0737	-0.12512	-0.005493	0.018005	0.005798	0.063019	0.003357	0.019379	-0.011139	0.026855	0.001984	0.44983	0.21713	0.062256	-0.004425	-0.000916	-0.046234	-0.10468	0.040436	0.039825	0.06485	-0.01358	-0.065002	-0.004425	-0.008087	-0.19989	-0.00351	-0.29221	0.085754	-0.005951	-0.000305
14.043	0.005798	0.057678	-0.29724	-0.007324	0.014648	0.018311	0.12131	0.00885	0.00412	-0.021973	0.036926	0.00946	0.044403	0.30701	0.08194	-0.002136	0.00824	-0.030212	-0.001373	-0.10956	-0.10346	0.27176	-0.032654	0.020905	0.017242	-0.015717	0.070496	-0.000916	0.3421	0.050354	-0.003052	-0.003815
14.044	0.010223	0.013275	-0.22247	-0.008545	0.021057	0.009613	0.13825	0.00351	-0.03418	-0.035095	-0.072784	-0.000458	-0.3186	0.35156	0.13947	-0.004578	0.019379	-0.065613	0.27847	-0.10269	-0.059357	0.36438	-0.066528	-0.027618	0.005341	-0.024109	0.20844	-0.007935	0.10696	0.013275	-0.00061	-0.005951
14.045	0.006256	0.005493	-0.070038	-0.005341	0.019226	0.00946	0.11368	0.003357	-0.03067	-0.013275	-0.30731	0.006104	-0.41077	0.31677	-0.1889	-0.001678	0.034485	-0.02121	0.23071	0.02655	0.03067	0.28534	-0.067291	-0.033722	0.012207	-0.024109	-0.1564	-0.003204	0.090179	-0.026398	-0.006714	-0.012817
14.046	0.010681	-0.045013	-0.078278	0.001831	0.024872	-0.00061	0.13611	0.003357	-0.036621	-0.02594	-0.045929	-0.000458	-0.21851	0.34546	-0.16647	0.021667	0.040588	-0.02121	0.14572	0.04425	0.063019	0.16388	-0.056	-0.025177	0.044861	0.002289	-0.2301	-0.002136	0.23117	-0.11292	-0.003662	-0.010071
14.047	0.007324	-0.024719	0.009003	-0.030365	0.020599	0.003662	0.17441	0.003052	-0.064087	-0.066833	0.18616	0.010529	0.12848	0.37186	-0.049438	0.005035	-0.005035	-0.023041	-0.032806	0.013733	0.023956	-0.093842	-0.12207	-0.037689	0.044098	0.017548	0.056305	-0.003357	-0.16235	-0.14221	-0.003967	-0.013123
14.048	0.004425	-0.015564	0.027313	-0.045624	0.022125	-0.001678	0.15472	0.005188	-0.083008	-0.052643	0.25177	0.009308	0.3537	0.2478	-0.16037	0.000458	-0.042419	0.001984	0.017242	-0.007019	-0.28625	0.034485	-0.12054	-0.000458	0.031281	0.013275	0.0354	-0.003052	-0.25543	-0.21668	-0.000916	-0.013733
14.049	0.014191	-0.067596	0.030823	-0.02533	0.023956	0.006714	0.10666	0.009918	-0.10498	-0.045166	0.20218	0.011597	0.29816	0.17334	0.064087	-0.008698	-0.050354	-0.077209	-0.06485	0.022888	-0.19089	0.19745	-0.085144	0.048065	0.034332	0.004883	-0.13123	-0.004425	-0.33402	-0.043335	0.007019	-0.01236
14.05	0.007782	-0.054474	-0.001221	-0.019226	0.024261	-0.013885	0.1622	0.002899	-0.1326	-0.027771	0.27664	-0.00061	0.29098	0.13947	0.010529	-0.010071	-0.062256	-0.040588	-0.19531	0.007019	0.11185	0.074615	-0.071411	0.041199	0.03479	-0.002594	-0.61966	-0.004425	0.29419	0.053558	0.001221	-0.012817
14.051	0.010834	-0.060272	-0.002747	0.033112	0.031128	-0.005188	0.19073	0.005798	-0.14069	0.049591	0.27573	0.01236	-0.060272	0.12787	-0.12604	-0.011597	-0.017548	0.010681	-0.13306	0.031738	-0.01709	-0.092316	-0.023346	-0.016174	0.021667	-0.00885	-0.5043	-0.003052	0.27695	0.12131	0.001373	-0.009918
14.052	0.006866	-0.047913	-0.018005	0.03418	0.027161	0.005646	0.14725	0.004272	-0.13504	-0.027161	0.06424	0.007019	-0.023956	0.1532	0.27695	-0.00351	0.008545	-0.015259	-0.13504	0.012665	-0.08606	-0.15869	0.019836	-0.065918	0.006866	-0.007019	-0.11231	-0.004883	0.14572	0.067444	0.00061	-0.000916
14.053	0.008545	-0.046692	-0.014648	0.001373	0.021515	-0.002289	0.10574	0.014343	-0.20004	-0.052948	-0.000153	0.010376	-0.28442	0.072937	0.045929	-0.012512	0.031433	-0.008698	-0.17105	0.031738	0.18097	-0.21805	0.015106	-0.043793	0.010529	-0.00351	0.093994	-0.004578	-0.050507	0.065308	0.000458	-0.002441
14.054	0.005646	-0.006256	-0.017242	-0.029602	0.023041	-0.000153	-0.010986	0.027008	-0.21881	-0.035095	0.016174	0.01236	-0.32761	0.083466	-0.26062	-0.011902	0.088196	-0.006256	-0.19486	0.007782	0.24063	-0.24765	0.032043	-0.10422	0.0177	-0.004272	0.27039	-0.00412	-0.33737	0.046234	0.000763	-0.008545
14.055	0.023651	0.011292	-0.071106	-0.011292	0.026245	-0.023804	-0.16724	0.020752	-0.052185	0.005341	-0.001678	0.001526	-0.079956	0.023193	-0.2066	-0.001373	0.11276	0.032196	-0.13123	-0.004578	0.06897	-0.26825	0.047302	-0.16556	0.002747	-0.01709	0.30823	-0.002899	-0.18524	-0.001984	-0.001831	-0.004272
14.056	0.035858	-0.012817	-0.18555	0.012817	0.027618	-0.025482	-0.14725	-0.007172	0.17792	0.00061	-0.10132	0.014343	0.48813	-0.078735	-0.10956	-0.01297	0.13657	-0.059204	-0.080109	-0.014343	-0.13901	-0.14908	0.075836	-0.23148	-0.006409	-0.02182	0.28397	-0.007172	0.003204	0.024261	-0.00885	-0.009613
14.057	0.072479	-0.006104	-0.099792	0.001221	0.023499	-0.005035	0.063324	-0.009308	0.071869	-0.004578	-0.21149	0.011444	1.3417	-0.019073	-0.25711	-0.001221	0.094299	-0.022125	-0.13199	-0.032959	-0.29785	-0.069275	0.10544	-0.2887	-0.015106	-0.019989	0.21118	-0.007629	0.088654	0.021973	-0.003357	-0.006714
